<mxfile host="Electron" modified="2024-02-24T23:29:51.081Z" agent="Mozilla/5.0 (Windows NT 10.0; Win64; x64) AppleWebKit/537.36 (KHTML, like Gecko) draw.io/23.1.5 Chrome/120.0.6099.109 Electron/28.1.0 Safari/537.36" etag="_dmpPXImeKK3nNuJhoF6" version="23.1.5" type="device">
  <diagram name="Page-1" id="ugP2s9B8RAi1Dxl7i7bk">
    <mxGraphModel dx="1040" dy="661" grid="1" gridSize="10" guides="1" tooltips="1" connect="1" arrows="1" fold="1" page="1" pageScale="1" pageWidth="827" pageHeight="1169" math="0" shadow="0">
      <root>
        <mxCell id="0" />
        <mxCell id="1" parent="0" />
        <mxCell id="1HfScitqWt0lNQusQdK4-1" value="TreeMap" style="whiteSpace=wrap;html=1;aspect=fixed;" parent="1" vertex="1">
          <mxGeometry x="200" y="230" width="90" height="90" as="geometry" />
        </mxCell>
        <mxCell id="1HfScitqWt0lNQusQdK4-2" value="HashTable" style="whiteSpace=wrap;html=1;aspect=fixed;" parent="1" vertex="1">
          <mxGeometry x="500" y="120" width="90" height="90" as="geometry" />
        </mxCell>
        <mxCell id="1HfScitqWt0lNQusQdK4-4" value="LinkedHashMap&lt;div&gt;&lt;br/&gt;&lt;/div&gt;" style="whiteSpace=wrap;html=1;aspect=fixed;" parent="1" vertex="1">
          <mxGeometry x="470" y="240" width="90" height="90" as="geometry" />
        </mxCell>
        <mxCell id="1HfScitqWt0lNQusQdK4-5" value="AbstractMap" style="whiteSpace=wrap;html=1;aspect=fixed;" parent="1" vertex="1">
          <mxGeometry x="270" y="420" width="90" height="90" as="geometry" />
        </mxCell>
        <mxCell id="1HfScitqWt0lNQusQdK4-6" value="NavigableMap" style="whiteSpace=wrap;html=1;aspect=fixed;" parent="1" vertex="1">
          <mxGeometry x="190" y="530" width="90" height="90" as="geometry" />
        </mxCell>
        <mxCell id="1HfScitqWt0lNQusQdK4-7" value="Map" style="whiteSpace=wrap;html=1;aspect=fixed;" parent="1" vertex="1">
          <mxGeometry x="660" y="640" width="90" height="90" as="geometry" />
        </mxCell>
        <mxCell id="1HfScitqWt0lNQusQdK4-8" value="Dictionnary" style="whiteSpace=wrap;html=1;aspect=fixed;" parent="1" vertex="1">
          <mxGeometry x="340" y="235" width="85" height="85" as="geometry" />
        </mxCell>
        <mxCell id="1HfScitqWt0lNQusQdK4-9" value="HashMap" style="whiteSpace=wrap;html=1;aspect=fixed;" parent="1" vertex="1">
          <mxGeometry x="425" y="390" width="90" height="90" as="geometry" />
        </mxCell>
        <mxCell id="1HfScitqWt0lNQusQdK4-10" value="SortedMap" style="whiteSpace=wrap;html=1;aspect=fixed;" parent="1" vertex="1">
          <mxGeometry x="335" y="560" width="90" height="90" as="geometry" />
        </mxCell>
        <mxCell id="1HfScitqWt0lNQusQdK4-11" value="" style="endArrow=none;html=1;rounded=0;" parent="1" source="1HfScitqWt0lNQusQdK4-9" target="1HfScitqWt0lNQusQdK4-4" edge="1">
          <mxGeometry width="50" height="50" relative="1" as="geometry">
            <mxPoint x="390" y="410" as="sourcePoint" />
            <mxPoint x="440" y="360" as="targetPoint" />
          </mxGeometry>
        </mxCell>
        <mxCell id="1HfScitqWt0lNQusQdK4-12" value="" style="endArrow=none;html=1;rounded=0;" parent="1" source="1HfScitqWt0lNQusQdK4-5" target="1HfScitqWt0lNQusQdK4-9" edge="1">
          <mxGeometry width="50" height="50" relative="1" as="geometry">
            <mxPoint x="390" y="410" as="sourcePoint" />
            <mxPoint x="440" y="360" as="targetPoint" />
          </mxGeometry>
        </mxCell>
        <mxCell id="1HfScitqWt0lNQusQdK4-13" value="" style="endArrow=none;html=1;rounded=0;" parent="1" source="1HfScitqWt0lNQusQdK4-8" target="1HfScitqWt0lNQusQdK4-2" edge="1">
          <mxGeometry width="50" height="50" relative="1" as="geometry">
            <mxPoint x="390" y="410" as="sourcePoint" />
            <mxPoint x="440" y="360" as="targetPoint" />
          </mxGeometry>
        </mxCell>
        <mxCell id="1HfScitqWt0lNQusQdK4-14" value="" style="endArrow=none;html=1;rounded=0;" parent="1" source="1HfScitqWt0lNQusQdK4-5" target="1HfScitqWt0lNQusQdK4-1" edge="1">
          <mxGeometry width="50" height="50" relative="1" as="geometry">
            <mxPoint x="390" y="380" as="sourcePoint" />
            <mxPoint x="440" y="330" as="targetPoint" />
          </mxGeometry>
        </mxCell>
        <mxCell id="1HfScitqWt0lNQusQdK4-15" value="" style="endArrow=none;html=1;rounded=0;" parent="1" source="1HfScitqWt0lNQusQdK4-6" target="1HfScitqWt0lNQusQdK4-1" edge="1">
          <mxGeometry width="50" height="50" relative="1" as="geometry">
            <mxPoint x="390" y="380" as="sourcePoint" />
            <mxPoint x="440" y="330" as="targetPoint" />
          </mxGeometry>
        </mxCell>
        <mxCell id="1HfScitqWt0lNQusQdK4-16" value="" style="endArrow=none;html=1;rounded=0;" parent="1" source="1HfScitqWt0lNQusQdK4-10" target="1HfScitqWt0lNQusQdK4-6" edge="1">
          <mxGeometry width="50" height="50" relative="1" as="geometry">
            <mxPoint x="390" y="380" as="sourcePoint" />
            <mxPoint x="440" y="330" as="targetPoint" />
          </mxGeometry>
        </mxCell>
        <mxCell id="1HfScitqWt0lNQusQdK4-17" value="" style="endArrow=none;html=1;rounded=0;" parent="1" source="1HfScitqWt0lNQusQdK4-7" target="1HfScitqWt0lNQusQdK4-2" edge="1">
          <mxGeometry width="50" height="50" relative="1" as="geometry">
            <mxPoint x="390" y="380" as="sourcePoint" />
            <mxPoint x="440" y="330" as="targetPoint" />
          </mxGeometry>
        </mxCell>
        <mxCell id="1HfScitqWt0lNQusQdK4-18" value="" style="endArrow=none;html=1;rounded=0;" parent="1" source="1HfScitqWt0lNQusQdK4-5" target="1HfScitqWt0lNQusQdK4-7" edge="1">
          <mxGeometry width="50" height="50" relative="1" as="geometry">
            <mxPoint x="390" y="380" as="sourcePoint" />
            <mxPoint x="440" y="330" as="targetPoint" />
          </mxGeometry>
        </mxCell>
        <mxCell id="1HfScitqWt0lNQusQdK4-19" value="" style="endArrow=none;html=1;rounded=0;" parent="1" source="1HfScitqWt0lNQusQdK4-10" target="1HfScitqWt0lNQusQdK4-7" edge="1">
          <mxGeometry width="50" height="50" relative="1" as="geometry">
            <mxPoint x="390" y="380" as="sourcePoint" />
            <mxPoint x="440" y="330" as="targetPoint" />
          </mxGeometry>
        </mxCell>
      </root>
    </mxGraphModel>
  </diagram>
</mxfile>
